<svg
        xmlns="http://www.w3.org/2000/svg"
        xmlns:xlink="http://www.w3.org/1999/xlink"
        width="0.167in" height="0.167in">
    <path fill-rule="evenodd" fill="rgb(255, 255, 255)"
          d="M5.427,7.573 L5.461,7.538 L5.128,7.205 C5.242,7.319 5.342,7.442 5.427,7.573 ZM2.000,11.000 L2.035,10.965 C1.904,10.880 1.781,10.781 1.667,10.666 L2.000,11.000 ZM10.965,2.034 L11.000,2.000 L10.667,1.666 C10.781,1.780 10.880,1.904 10.965,2.034 ZM7.573,5.427 C8.036,5.729 8.589,5.848 9.130,5.785 C9.187,6.087 8.496,6.567 7.625,7.437 C6.564,8.498 6.259,8.820 5.800,8.885 C5.808,8.424 5.684,7.967 5.427,7.573 C5.342,7.442 5.242,7.319 5.128,7.205 L4.128,6.205 C3.760,5.836 3.152,5.848 2.769,6.231 L1.731,7.269 L0.692,8.307 C0.310,8.690 0.298,9.298 0.667,9.666 L1.667,10.666 C1.781,10.781 1.904,10.880 2.035,10.965 C2.765,11.441 3.715,11.459 4.495,11.030 C5.374,10.861 6.771,10.229 8.716,8.283 C10.903,6.096 11.275,4.759 11.225,4.040 C11.437,3.366 11.352,2.627 10.965,2.034 C10.880,1.904 10.781,1.780 10.667,1.666 L9.667,0.666 C9.298,0.298 8.690,0.309 8.308,0.692 L7.269,1.730 L6.231,2.769 C5.848,3.151 5.837,3.760 6.205,4.128 L7.205,5.128 C7.319,5.242 7.443,5.342 7.573,5.427 ZM7.538,5.461 L7.573,5.427 C7.443,5.342 7.319,5.242 7.205,5.128 L7.538,5.461 Z"/>
</svg>