<svg
        xmlns="http://www.w3.org/2000/svg"
        xmlns:xlink="http://www.w3.org/1999/xlink"
        width="0.208in" height="0.194in">
    <path fill-rule="evenodd" fill="rgb(255, 255, 255)"
          d="M13.000,14.000 L2.000,14.000 C1.000,14.000 -0.000,12.999 -0.000,12.000 L-0.000,2.000 C-0.000,1.000 1.000,-0.000 2.000,-0.000 L13.000,-0.000 C14.000,-0.000 15.000,1.000 15.000,2.000 L15.000,12.000 C15.000,12.999 14.000,14.000 13.000,14.000 ZM2.000,9.293 L4.646,6.646 L5.354,7.353 L2.000,10.707 L2.000,12.000 L13.000,12.000 L13.000,10.707 L9.646,7.353 L10.354,6.646 L13.000,9.293 L13.000,2.707 L8.207,7.500 L8.353,7.646 L7.646,8.353 L7.500,8.207 L7.354,8.353 L6.646,7.646 L6.793,7.500 L2.000,2.707 L2.000,9.293 ZM7.500,6.793 L12.293,2.000 L2.707,2.000 L7.500,6.793 Z"/>
</svg>