<svg 
 xmlns="http://www.w3.org/2000/svg"
 xmlns:xlink="http://www.w3.org/1999/xlink"
 width="0.153in" height="0.222in">
<path fill-rule="evenodd"  fill="rgb(255, 255, 255)"
 d="M5.500,15.999 C5.500,15.999 -0.000,8.079 -0.000,5.204 C-0.000,2.330 2.462,-0.000 5.500,-0.000 C8.538,-0.000 11.000,2.330 11.000,5.204 C11.000,8.079 5.500,15.999 5.500,15.999 ZM5.500,2.000 C3.677,2.000 2.000,3.560 2.000,5.328 C2.000,7.095 3.662,8.984 5.484,8.984 C7.307,8.984 8.984,7.111 8.984,5.343 C8.984,3.576 7.323,2.000 5.500,2.000 ZM5.000,5.000 L6.000,5.000 L6.000,5.999 L5.000,5.999 L5.000,5.000 Z"/>
</svg>